<svg id="Layer_1" data-name="Layer 1" xmlns="http://www.w3.org/2000/svg" viewBox="0 0 2471 2500"><defs><style>.cls-1{fill:#868686;}.cls-2{fill:#477efc;}.cls-3{fill:#fe0000;}.cls-4{fill:#fff;}.cls-5{font-size:216.55px;font-family:TimesNewRomanPS-BoldMT, Times New Roman;font-weight:700;letter-spacing:-0.01em;}</style></defs><path class="cls-1" d="M1738.39,1102.09q728.58,49.7,732.59,134,2.91,61.1-374.71,140.37,183.57-68.27,179.82-123.84Q2269.78,1159.57,1738.39,1102.09Z"/><path class="cls-1" d="M732.61,1102.09Q4,1151.79,0,1236.08q-2.91,61.1,374.71,140.37-183.57-68.27-179.82-123.84Q201.23,1159.57,732.61,1102.09Z"/><path class="cls-2" d="M596.54,573.29H1037.9a100,100,0,0,1,100,100v441.37a0,0,0,0,1,0,0H696.54a100,100,0,0,1-100-100V573.29A0,0,0,0,1,596.54,573.29Z"/><path class="cls-3" d="M1137.9,1114.66H1800a150,150,0,0,1,150,150v662.05a0,0,0,0,1,0,0H1287.9a150,150,0,0,1-150-150V1114.66A0,0,0,0,1,1137.9,1114.66Z"/><circle class="cls-4" cx="1829.21" cy="1805.96" r="93.68"/><path d="M691.7,1048.63v379.61H610.85V1048.63Z"/><path d="M754.76,1428.24V1251.8q0-46.4,27.78-74.27t74-27.88q46,0,70.4,27.08t24.39,77.86v173.65H870.46V1254.59q0-24.88-17.72-24.89-17.13,0-17.13,24.89v173.65Z"/><path d="M1095.62,1234.48v193.76h-80.85V1156.42h105.35q69.3,0,108.53,31.46,46.61,37.63,46.6,102.16,0,61.74-39.83,100.76t-102.56,39q-7.36,0-24.09-.79v-79.86h12.94q70.69,0,70.7-59.14,0-55.56-69.5-55.56Z"/><path d="M1472.53,1262.16v60.54h-52.77q-10.76,0-15.23,3.18t-4.49,10.76q0,8.56,4.58,11.25t18.72,2.69h54.37v77.66h-63.53q-44.81,0-68.5-21.41T1322,1345V1238.46q0-39,22.4-60.54t63-21.5h70.3v78.06h-51.58q-20.91,0-20.91,13.54,0,8,5,11t17.72,3.09Z"/><path d="M1619.23,1229.5v198.74h-80.85V1156.42h103.75q47.4,0,73.49,23.5,29.07,26.28,29.07,66.71,0,41.22-36,69.5l46.59,112.11h-84.83l-39.23-87.62v-69.9h6.37q25.48,0,25.49-21.9,0-19.32-29.47-19.32Z"/><path d="M1895.17,1291.83v71.69h-23.3v64.72H1791V1255.39q0-50.19,27.39-78t77-27.78q47.79,0,70.7,25.19t22.9,77.76v175.64h-80.85V1258q0-15.93-3.79-22.11t-13.54-6.17q-18.91,0-18.92,28.28v33.85Z"/><text class="cls-5" transform="translate(76.65 1846.6)">Sejak 1974</text></svg>