<svg xmlns="http://www.w3.org/2000/svg" viewBox="0 0 500 500"><defs><style>.cls-1{fill:#ededed;}</style></defs><g id="Layer_3" data-name="Layer 3"><path class="cls-1" d="M319,221.43,290.42,250l85.71,85.72,16.74,16.73V228.34L450,171.21V421.44A28.57,28.57,0,0,1,421.43,450h0a28.53,28.53,0,0,1-20.19-8.37l-8.37-8.37-21.64-21.64-18.77-18.77-16.74-16.73L290.4,330.81,278.58,319,250,290.41,221.43,319l-73.89,73.89h124.1l6.94,6.95,11.82,11.82L328.78,450H78.57A28.58,28.58,0,0,1,50,421.43h0a28.56,28.56,0,0,1,8.37-20.2L209.6,250,181,221.43l-11.84-11.84-45.3-45.31-16.74-16.73V271.64L50,328.79V78.56A28.57,28.57,0,0,1,78.57,50h0a28.53,28.53,0,0,1,20.19,8.37l8.38,8.38,21.65,21.63,18.75,18.77,16.75,16.75,45.31,45.3L221.43,181,250,209.59,278.58,181l11.82-11.83,62.06-62H228.36l-6.93-6.93L171.22,50h250.2A28.59,28.59,0,0,1,450,78.58h0a28.58,28.58,0,0,1-8.37,20.21L330.82,209.6Z"/></g></svg>